/* XPM */
static const char * android_xpm[] = {
"24 24 293 2",
"  	c None",
". 	c #818282",
"+ 	c #7E7F85",
"@ 	c #7F7F84",
"# 	c #808282",
"$ 	c #8C9274",
"% 	c #90986F",
"& 	c #7E7F83",
"* 	c #7A7B82",
"= 	c #888D78",
"- 	c #949D6B",
"; 	c #7C7D85",
"> 	c #A1AD69",
", 	c #B2B793",
"' 	c #C2CC8C",
") 	c #C6D189",
"! 	c #C3CD8C",
"~ 	c #B4BA91",
"{ 	c #A5B266",
"] 	c #7B7B86",
"^ 	c #7C7C83",
"/ 	c #AFB68D",
"( 	c #C0CE79",
"_ 	c #B0BF65",
": 	c #B7C667",
"< 	c #B8C86B",
"[ 	c #B7C768",
"} 	c #B3C265",
"| 	c #BFCB7C",
"1 	c #B4BC87",
"2 	c #7C7D83",
"3 	c #7D7D82",
"4 	c #AEB48C",
"5 	c #B4C756",
"6 	c #828480",
"7 	c #C4D27A",
"8 	c #C3CF7F",
"9 	c #C2D07B",
"0 	c #8E927F",
"a 	c #B0C25B",
"b 	c #B3BC85",
"c 	c #7C7D84",
"d 	c #8A8B89",
"e 	c #B8CA5D",
"f 	c #AFC257",
"g 	c #AEB682",
"h 	c #B2B894",
"i 	c #C8D489",
"j 	c #CBD691",
"k 	c #C9D48C",
"l 	c #BAC291",
"m 	c #A6AB8B",
"n 	c #B4C65B",
"o 	c #B8C95E",
"p 	c #8E9184",
"q 	c #A1A880",
"r 	c #ACC048",
"s 	c #B3C659",
"t 	c #BECD6D",
"u 	c #C7D482",
"v 	c #D1DB96",
"w 	c #D8E0A5",
"x 	c #D2DC99",
"y 	c #C8D584",
"z 	c #BFCE71",
"A 	c #B4C75C",
"B 	c #ACC049",
"C 	c #A6B078",
"D 	c #7F8083",
"E 	c #8F9285",
"F 	c #848681",
"G 	c #8A8D80",
"H 	c #8A8D82",
"I 	c #8B8D85",
"J 	c #8C8E86",
"K 	c #8D8F88",
"L 	c #8E8F89",
"M 	c #8D8F89",
"N 	c #8C8E87",
"O 	c #8B8E85",
"P 	c #8A8D81",
"Q 	c #858780",
"R 	c #7D7D83",
"S 	c #8D9085",
"T 	c #808283",
"U 	c #7B7B83",
"V 	c #C3CF82",
"W 	c #C6D478",
"X 	c #AFB689",
"Y 	c #9DA674",
"Z 	c #BDCD67",
"` 	c #C2D172",
" .	c #C7D57E",
"..	c #CBD886",
"+.	c #CDDA8C",
"@.	c #CEDA8D",
"#.	c #CDD98B",
"$.	c #CAD785",
"%.	c #C3D275",
"&.	c #BFCF6C",
"*.	c #A5B170",
"=.	c #A9B089",
"-.	c #CAD685",
";.	c #7E7E83",
">.	c #B7C95C",
",.	c #BCCA70",
"'.	c #AAB869",
").	c #939D69",
"!.	c #AEC054",
"~.	c #B5C663",
"{.	c #BBCA70",
"].	c #C1CD7A",
"^.	c #C3D081",
"/.	c #C4D082",
"(.	c #C2CF7E",
"_.	c #BECD77",
":.	c #BBC96E",
"<.	c #B5C664",
"[.	c #B1C25A",
"}.	c #9AA562",
"|.	c #ABB86B",
"1.	c #BBCA6F",
"2.	c #B7C860",
"3.	c #888A87",
"4.	c #7C7B87",
"5.	c #B7C95E",
"6.	c #C6D287",
"7.	c #A7B465",
"8.	c #949D6A",
"9.	c #B8C86A",
"0.	c #BFCD78",
"a.	c #C5D185",
"b.	c #C9D48B",
"c.	c #BDCB74",
"d.	c #B8C869",
"e.	c #B2C45E",
"f.	c #9BA766",
"g.	c #A4B261",
"h.	c #BDCD6D",
"i.	c #82857D",
"j.	c #BACB66",
"k.	c #D0D99A",
"l.	c #A9B66A",
"m.	c #959E6C",
"n.	c #B3C45F",
"o.	c #BBC970",
"p.	c #C3D080",
"q.	c #C9D48E",
"r.	c #CED796",
"s.	c #CDD796",
"t.	c #CAD58E",
"u.	c #C5D183",
"v.	c #C0CD78",
"w.	c #BAC96D",
"x.	c #B4C461",
"y.	c #9CA868",
"z.	c #A6B466",
"A.	c #C2D078",
"B.	c #83857E",
"C.	c #BBCB65",
"D.	c #CED898",
"E.	c #959E6D",
"F.	c #B5C561",
"G.	c #BDCB73",
"H.	c #C5D184",
"I.	c #CDD795",
"J.	c #D2DBA1",
"K.	c #D2DA9E",
"L.	c #CCD693",
"M.	c #C0CE7B",
"N.	c #BACA6E",
"O.	c #B5C662",
"P.	c #9DA869",
"Q.	c #C2D077",
"R.	c #82857E",
"S.	c #A7B565",
"T.	c #959E6E",
"U.	c #B5C563",
"V.	c #BECC75",
"W.	c #C6D286",
"X.	c #CFD898",
"Y.	c #D6DDA8",
"Z.	c #D3DBA1",
"`.	c #CDD695",
" +	c #C7D288",
".+	c #C1CE7B",
"++	c #B5C562",
"@+	c #A5B362",
"#+	c #C4D183",
"$+	c #BDCC6C",
"%+	c #7E7D89",
"&+	c #A8BC48",
"*+	c #BCCB70",
"=+	c #97A750",
"-+	c #979F6F",
";+	c #B4C562",
">+	c #D2DBA0",
",+	c #D1DA9C",
"'+	c #CCD692",
")+	c #C0CD7A",
"!+	c #BBCA6E",
"~+	c #9EA96A",
"{+	c #94A34E",
"]+	c #BCCB6F",
"^+	c #AFC155",
"/+	c #7D8178",
"(+	c #7F7F88",
"_+	c #82933F",
":+	c #8FA52F",
"<+	c #7F895C",
"[+	c #96A06B",
"}+	c #B3C560",
"|+	c #BBCA71",
"1+	c #C9D48D",
"2+	c #BECD78",
"3+	c #BAC96C",
"4+	c #B4C460",
"5+	c #9DA966",
"6+	c #7E8762",
"7+	c #8FA62F",
"8+	c #82943D",
"9+	c #807F89",
"0+	c #7F7F8A",
"a+	c #7F8085",
"b+	c #959F6A",
"c+	c #B2C25C",
"d+	c #B9C86B",
"e+	c #C0CD79",
"f+	c #C8D48B",
"g+	c #C8D38B",
"h+	c #C6D285",
"i+	c #C1CF7D",
"j+	c #B8C768",
"k+	c #B2C35D",
"l+	c #9DA964",
"m+	c #7F7F85",
"n+	c #808088",
"o+	c #959F69",
"p+	c #AFC156",
"q+	c #B6C665",
"r+	c #BCCB71",
"s+	c #C3CF80",
"t+	c #BECC76",
"u+	c #B0C158",
"v+	c #9CA961",
"w+	c #84877E",
"x+	c #A3B25B",
"y+	c #A9B864",
"z+	c #B8C868",
"A+	c #BCCA71",
"B+	c #B9C677",
"C+	c #B1BB7A",
"D+	c #B4C176",
"E+	c #BAC96E",
"F+	c #B7C766",
"G+	c #ABBA62",
"H+	c #A4B35D",
"I+	c #8A8F76",
"J+	c #7D7D86",
"K+	c #898D7B",
"L+	c #B5C65D",
"M+	c #B7C767",
"N+	c #A3AD73",
"O+	c #7C7C85",
"P+	c #92987A",
"Q+	c #B7C764",
"R+	c #B3C55E",
"S+	c #909675",
"T+	c #7D7E86",
"U+	c #888D79",
"V+	c #B0C253",
"W+	c #B2C35C",
"X+	c #A0AB6D",
"Y+	c #7E7F84",
"Z+	c #919877",
"`+	c #B3C45B",
" @	c #AFC255",
".@	c #8F9671",
"+@	c #898E78",
"@@	c #ADC04D",
"#@	c #ADBF51",
"$@	c #909773",
"%@	c #AEC051",
"&@	c #ACC04E",
"*@	c #7F8084",
"=@	c #ABBD4F",
"-@	c #AEC24B",
";@	c #8D9472",
">@	c #85887D",
",@	c #ADC14C",
"'@	c #85887C",
")@	c #818281",
"!@	c #808183",
"                . +           @ #               ",
"                $ % & * * *   = -               ",
"                ; > , ' ) ! ~ { ]               ",
"              ^ / ( _ : < [ } | 1 2             ",
"            3 4 5 6 & 7 8 9 0 ] a b c           ",
"            d e f g h i j k l m n o p           ",
"            q r s t u v w x y z A B C           ",
"      D E 2 F G H I J K L M N O H P Q R S T     ",
"    U V W X Y Z `  ...+.@.#.$. .%.&.*.=.W -.;.  ",
"    ] >.,.'.).!.~.{.].^./.(._.:.<.[.}.|.1.2.3.  ",
"    4.5.6.7.8.[.9.0.a.b.k 6.(.c.d.e.f.g.a.h.i.  ",
"    4.j.k.l.m.n.o.p.q.r.s.t.u.v.w.x.y.z.r.A.B.  ",
"    4.C.D.l.E.F.G.H.I.J.K.L.6.M.N.O.P.z.I.Q.R.  ",
"    4.5.a.S.T.U.V.W.X.Y.Z.`. +.+o.++P.@+#+$+B.  ",
"    %+&+*+=+-+;+c.a.I.>+,+'+6.)+!+++~+{+]+^+/+  ",
"    (+_+:+<+[+}+|+p.1+I.I.1+/.2+3+4+5+6+7+8+9+  ",
"      (+0+a+b+c+d+e+a.f+g+h+i+G.j+k+l+m+0+n+    ",
"            o+p+q+r+.+s+^.i+t+w.U.u+v++         ",
"            w+x+y+z+A+B+C+D+E+F+G+H+I+          ",
"              J+K+L+M+N+O+P+Q+R+S+T+            ",
"                U+V+W+X+Y+Z+`+ @.@              ",
"                +@@@#@5++ $@%@&@.@              ",
"                *@=@-@;@  >@,@,@'@              ",
"                  + )@      !@!@                "};
